<svg width="532" height="346" viewBox="0 0 532 346" fill="none" xmlns="http://www.w3.org/2000/svg">
<path fill-rule="evenodd" clip-rule="evenodd" d="M458.201 102.8C472.05 99.8718 486.292 105.394 498.436 112.663C511.464 120.462 523.677 130.797 528.825 145.076C534.057 159.586 532.534 176.007 526.374 190.148C520.559 203.498 508.066 211.839 496.116 220.166C484.412 228.322 472.243 240.184 458.201 237.653C444.239 235.136 439.876 217.271 429.071 208.082C419.537 199.974 403.788 198.789 398.939 187.255C394.035 175.591 399.32 162.049 404.953 150.719C410.012 140.542 420.238 135.015 428.687 127.411C438.448 118.628 445.351 105.517 458.201 102.8Z" fill="#F6F6F6" fill-opacity="0.4"/>
<path fill-rule="evenodd" clip-rule="evenodd" d="M61.2009 210.8C75.0499 207.872 89.2917 213.394 101.436 220.663C114.464 228.462 126.677 238.797 131.825 253.076C137.057 267.586 135.534 284.007 129.374 298.148C123.559 311.498 111.066 319.839 99.1159 328.166C87.4116 336.322 75.2427 348.184 61.2009 345.653C47.2386 343.136 42.8758 325.271 32.0706 316.082C22.5367 307.974 6.78836 306.789 1.93893 295.255C-2.96506 283.591 2.32049 270.049 7.95299 258.719C13.0117 248.542 23.2381 243.015 31.6873 235.411C41.4476 226.628 48.3514 213.517 61.2009 210.8Z" fill="#F6F6F6" fill-opacity="0.4"/>
<path fill-rule="evenodd" clip-rule="evenodd" d="M270.201 0.800082C284.05 -2.12821 298.292 3.39408 310.436 10.6635C323.464 18.4623 335.677 28.7972 340.825 43.0761C346.057 57.5864 344.534 74.0067 338.374 88.1483C332.559 101.498 320.066 109.839 308.116 118.166C296.412 126.322 284.243 138.184 270.201 135.653C256.239 133.136 251.876 115.271 241.071 106.082C231.537 97.9741 215.788 96.789 210.939 85.2547C206.035 73.5907 211.32 60.0494 216.953 48.7188C222.012 38.5424 232.238 33.0149 240.687 25.4114C250.448 16.6279 257.351 3.51705 270.201 0.800082Z" fill="#F6F6F6" fill-opacity="0.4"/>
</svg>
