<svg width="1332" height="999" viewBox="0 0 1332 999" fill="none" xmlns="http://www.w3.org/2000/svg">
<path fill-rule="evenodd" clip-rule="evenodd" d="M735.239 15.1039C847.156 28.4336 949.755 66.4033 1038.62 123.997C1124.6 179.719 1182.47 254.313 1229.73 335.581C1284.14 429.15 1338.49 523.856 1331.37 627.437C1322.67 753.981 1317.98 913.814 1185.56 978.393C1051.43 1043.81 889.943 933.968 735.239 918.164C607.395 905.104 478.03 935.3 359.37 893.993C217.02 844.439 36.0363 788.114 3.97174 663.601C-28.4921 537.538 146.744 444.814 213.704 328.344C268.693 232.696 256.802 105.6 360.622 43.2447C464.476 -19.1314 608.026 -0.0476406 735.239 15.1039Z" fill="#98DED9"/>
</svg>
