<svg width="415" height="100" viewBox="0 0 415 100" fill="none" xmlns="http://www.w3.org/2000/svg">
<path fill-rule="evenodd" clip-rule="evenodd" d="M0 100L6 88C13 75 25 50 38 48C50 46 63 67 75 79C88 92 101 96 113 85C126 75 138 50 151 35C163 21 176 17 189 19C201 21 214 29 226 40C239 50 252 63 264 63C277 63 289 50 302 48C314 46 327 54 340 69C352 83 365 104 377 98C390 92 402 58 409 42L415 25V0H409C402 0 390 0 377 0C365 0 352 0 340 0C327 0 314 0 302 0C289 0 277 0 264 0C252 0 239 0 226 0C214 0 201 0 189 0C176 0 163 0 151 0C138 0 126 0 113 0C101 0 88 0 75 0C63 0 50 0 38 0C25 0 13 0 6 0H0V100Z" fill="#C7EAE7"/>
</svg>
