<svg width="17" height="12" viewBox="0 0 17 12" fill="none" xmlns="http://www.w3.org/2000/svg">
<path fill-rule="evenodd" clip-rule="evenodd" d="M0 5.79545C1.33682 2.40318 4.63636 0 8.5 0C12.3636 0 15.6632 2.40318 17 5.79545C15.6632 9.18773 12.3636 11.5909 8.5 11.5909C4.63636 11.5909 1.33682 9.18773 0 5.79545ZM15.3155 5.79545C14.0405 3.19136 11.4286 1.54545 8.5 1.54545C5.57136 1.54545 2.95955 3.19136 1.68455 5.79545C2.95955 8.39955 5.56364 10.0455 8.5 10.0455C11.4364 10.0455 14.0405 8.39955 15.3155 5.79545ZM8.5 3.86364C9.56636 3.86364 10.4318 4.72909 10.4318 5.79545C10.4318 6.86182 9.56636 7.72727 8.5 7.72727C7.43364 7.72727 6.56818 6.86182 6.56818 5.79545C6.56818 4.72909 7.43364 3.86364 8.5 3.86364ZM5.02273 5.79545C5.02273 3.87909 6.58364 2.31818 8.5 2.31818C10.4164 2.31818 11.9773 3.87909 11.9773 5.79545C11.9773 7.71182 10.4164 9.27273 8.5 9.27273C6.58364 9.27273 5.02273 7.71182 5.02273 5.79545Z" fill="#B7B7B7"/>
</svg>
